<svg width="12" height="15" viewBox="0 0 12 15" fill="none" xmlns="http://www.w3.org/2000/svg">
    <path d="M1 8.5C0.447715 8.5 -4.82823e-08 8.05228 0 7.5C4.82823e-08 6.94772 0.447715 6.5 1 6.5L1 8.5ZM11.7071 6.79289C12.0976 7.18342 12.0976 7.81658 11.7071 8.20711L5.34315 14.5711C4.95262 14.9616 4.31946 14.9616 3.92893 14.5711C3.53841 14.1805 3.53841 13.5474 3.92893 13.1569L9.58579 7.5L3.92893 1.84315C3.53841 1.45262 3.53841 0.819457 3.92893 0.428932C4.31946 0.0384081 4.95262 0.0384081 5.34315 0.428933L11.7071 6.79289ZM1 6.5L11 6.5L11 8.5L1 8.5L1 6.5Z"
          fill="black"/>
</svg>
