<svg width="60" height="61" viewBox="0 0 60 61" fill="none" xmlns="http://www.w3.org/2000/svg">
    <g clip-path="url(#clip0_2_37)">
        <path d="M22.2167 53.8333C24.2877 53.8333 25.9667 52.1544 25.9667 50.0833C25.9667 48.0123 24.2877 46.3333 22.2167 46.3333C20.1456 46.3333 18.4667 48.0123 18.4667 50.0833C18.4667 52.1544 20.1456 53.8333 22.2167 53.8333Z"
              fill="white"/>
        <path d="M45 53.8333C47.0711 53.8333 48.75 52.1544 48.75 50.0833C48.75 48.0123 47.0711 46.3333 45 46.3333C42.9289 46.3333 41.25 48.0123 41.25 50.0833C41.25 52.1544 42.9289 53.8333 45 53.8333Z"
              fill="white"/>
        <path d="M37.6167 12.1667C37.5408 11.6143 37.5018 11.0575 37.5 10.5C37.5018 9.94248 37.5408 9.38569 37.6167 8.83334H19.15L20.2334 12.1667H37.6167Z"
              fill="white"/>
        <path d="M50 23H49.3L47.2167 32.1667H22.2167L14.6 8.04999C14.5176 7.79409 14.3745 7.56191 14.183 7.37327C13.9915 7.18463 13.7571 7.04513 13.5 6.96666L6.66667 4.86665C6.45655 4.80209 6.23578 4.77954 6.01695 4.8003C5.79812 4.82105 5.58552 4.88471 5.39129 4.98762C4.99903 5.19548 4.7054 5.55064 4.575 5.97499C4.4446 6.39933 4.48812 6.8581 4.69597 7.25037C4.90382 7.64263 5.25899 7.93626 5.68333 8.06666L11.6667 9.89999L19.3167 34.0667L16.5833 36.3L16.3667 36.5167C15.6906 37.2958 15.3073 38.2863 15.283 39.3177C15.2587 40.349 15.5947 41.3565 16.2333 42.1667C16.6876 42.7191 17.2648 43.1575 17.9189 43.4469C18.573 43.7364 19.2857 43.8687 20 43.8333H47.8167C48.2587 43.8333 48.6826 43.6577 48.9952 43.3452C49.3077 43.0326 49.4833 42.6087 49.4833 42.1667C49.4833 41.7246 49.3077 41.3007 48.9952 40.9881C48.6826 40.6756 48.2587 40.5 47.8167 40.5H19.7333C19.5414 40.4934 19.3544 40.4375 19.1904 40.3376C19.0264 40.2377 18.891 40.0971 18.7972 39.9296C18.7033 39.762 18.6543 39.5731 18.6548 39.3811C18.6553 39.189 18.7053 39.0004 18.8 38.8333L22.8167 35.5H48.55C48.9353 35.5094 49.3119 35.385 49.6158 35.148C49.9196 34.911 50.132 34.576 50.2167 34.2L52.8333 22.6833C51.904 22.8964 50.9534 23.0027 50 23Z"
              fill="white"/>
        <path d="M50 18.8333C54.6024 18.8333 58.3334 15.1024 58.3334 10.5C58.3334 5.89762 54.6024 2.16666 50 2.16666C45.3976 2.16666 41.6667 5.89762 41.6667 10.5C41.6667 15.1024 45.3976 18.8333 50 18.8333Z"
              fill="#B4E0EB"/>
    </g>
    <defs>
        <clipPath id="clip0_2_37">
            <rect width="60" height="60" fill="white" transform="translate(0 0.5)"/>
        </clipPath>
    </defs>
</svg>
