<svg width="61" height="59" viewBox="0 0 61 59" fill="none" xmlns="http://www.w3.org/2000/svg">
    <g clip-path="url(#clip0_2_11)">
        <path d="M39.6829 0C43.3618 0 46.3439 5.57496 46.3439 10.2986C46.3439 15.0222 43.3618 18.8505 39.6829 18.8505C36.0039 18.8505 33.0218 15.0215 33.0218 10.2986C33.0218 5.57567 36.0039 0 39.6829 0Z"
              fill="#B4E0EB"/>
        <path d="M20.7562 0C24.4351 0 27.4173 5.57496 27.4173 10.2986C27.4173 15.0222 24.4351 18.8505 20.7562 18.8505C17.0772 18.8505 14.0951 15.0215 14.0951 10.2986C14.0951 5.57567 17.0772 0 20.7562 0Z"
              fill="#B4E0EB"/>
        <path d="M0.807052 24.9106C-0.757252 21.015 -0.0710915 15.4096 3.04756 14.1687C6.16622 12.9277 10.5384 16.5202 12.1013 20.4165C13.6642 24.3128 12.4021 28.4776 9.28273 29.7185C6.16337 30.9594 2.36922 28.8069 0.807052 24.9106Z"
              fill="#B4E0EB"/>
        <path d="M59.632 24.9106C58.0677 28.8062 54.275 30.9594 51.1563 29.7185C48.0376 28.4776 46.7755 24.3128 48.3377 20.4165C49.8999 16.5202 54.2728 12.9263 57.3915 14.1687C60.5101 15.411 61.1942 21.0143 59.632 24.9106Z"
              fill="#B4E0EB"/>
        <path d="M54.051 46.4328C53.3399 43.2455 51.6334 40.3641 49.7499 37.6967C45.3357 31.4489 38.2672 25.1394 30.2195 25.1394C22.2053 25.1394 15.1041 31.4474 10.6892 37.6967C8.80561 40.3641 7.10265 43.2419 6.38805 46.4328C5.67345 49.6236 6.06452 53.1927 8.04906 55.7822C10.0336 58.3717 13.7943 59.6736 16.7324 58.2683C18.4801 57.434 19.8951 55.7518 21.8228 55.5896C23.5933 55.4415 25.1576 56.6286 26.6337 57.6217C27.7003 58.3392 28.9873 58.9922 30.2195 59.0007C31.4518 58.9922 32.738 58.3392 33.8053 57.6217C35.2815 56.6301 36.8458 55.4415 38.6163 55.5896C40.5439 55.7518 41.9582 57.4311 43.7067 58.2683C46.6447 59.6736 50.4054 58.3774 52.39 55.7851C54.3745 53.1927 54.7656 49.6243 54.051 46.4328ZM37.2297 42.5889C36.3217 44.242 34.889 45.6976 33.6788 46.8301C33.0303 47.4373 32.3473 48.0068 31.6331 48.5357H31.6288C31.2202 48.8346 30.7265 48.9957 30.2195 48.9957C29.7126 48.9957 29.2189 48.8346 28.8102 48.5357H28.806C28.0917 48.0068 27.4087 47.4373 26.7603 46.8301C25.5515 45.6969 24.1173 44.242 23.2093 42.5889C22.4591 41.224 22.0674 39.7245 22.4556 38.1621C22.8282 36.6647 24.0142 35.3494 25.469 35.166C27.1513 34.9535 29.1103 36.1328 30.2195 37.4871C31.3287 36.1328 33.2877 34.9542 34.97 35.1667C36.4248 35.3501 37.6109 36.6654 37.9834 38.1628C38.3717 39.7245 37.9799 41.224 37.2297 42.5889Z"
              fill="#B4E0EB"/>
    </g>
    <defs>
        <clipPath id="clip0_2_11">
            <rect width="60.439" height="59" fill="white"/>
        </clipPath>
    </defs>
</svg>
