<svg width="21" height="21" viewBox="0 0 21 21" fill="none" xmlns="http://www.w3.org/2000/svg">
    <path d="M20.3789 19.0624L13.8865 12.5699C14.894 11.2675 15.439 9.67496 15.439 7.99997C15.439 5.99498 14.6565 4.11498 13.2415 2.69749C11.8265 1.28 9.94148 0.5 7.93899 0.5C5.9365 0.5 4.05151 1.2825 2.63652 2.69749C1.21902 4.11248 0.439026 5.99498 0.439026 7.99997C0.439026 10.0025 1.22152 11.8874 2.63652 13.3024C4.05151 14.7199 5.934 15.4999 7.93899 15.4999C9.61399 15.4999 11.204 14.9549 12.5065 13.9499L18.9989 20.4399C19.018 20.459 19.0406 20.4741 19.0655 20.4844C19.0903 20.4947 19.117 20.5 19.1439 20.5C19.1709 20.5 19.1975 20.4947 19.2224 20.4844C19.2473 20.4741 19.2699 20.459 19.2889 20.4399L20.3789 19.3524C20.398 19.3334 20.4131 19.3108 20.4234 19.2859C20.4337 19.261 20.439 19.2343 20.439 19.2074C20.439 19.1805 20.4337 19.1538 20.4234 19.1289C20.4131 19.1041 20.398 19.0815 20.3789 19.0624ZM11.899 11.96C10.839 13.0174 9.43399 13.5999 7.93899 13.5999C6.444 13.5999 5.03901 13.0174 3.97901 11.96C2.92152 10.9 2.33902 9.49496 2.33902 7.99997C2.33902 6.50497 2.92152 5.09748 3.97901 4.03998C5.03901 2.98249 6.444 2.39999 7.93899 2.39999C9.43399 2.39999 10.8415 2.97999 11.899 4.03998C12.9565 5.09998 13.539 6.50497 13.539 7.99997C13.539 9.49496 12.9565 10.9025 11.899 11.96Z"
          fill="#2D2F3A"/>
</svg>
